<svg width="38" height="33" viewBox="0 0 38 33" fill="none" xmlns="http://www.w3.org/2000/svg">
<g filter="url(#filter0_d_833_579)">
<path d="M14.6 16.8334C13.4853 16.8334 12.5833 15.9314 12.5833 14.8168V11.9714C12.5833 10.8568 13.4853 9.95477 14.6 9.95477C15.7147 9.95477 16.6167 10.8568 16.6167 11.9714V14.8168C16.6167 15.9314 15.7147 16.8334 14.6 16.8334ZM21.3833 14.8168C21.3833 15.9314 22.2853 16.8334 23.4 16.8334C24.5147 16.8334 25.4167 15.9314 25.4167 14.8168V11.9714C25.4167 10.8568 24.5147 9.95477 23.4 9.95477C22.2853 9.95477 21.3833 10.8568 21.3833 11.9714V14.8168Z" fill="#E90083"/>
<path d="M8 14.1024C8.088 8.0436 13.0556 4 19 4C24.9451 4 29.912 8.0436 30 14.1024V14.2659C30.0003 15.1328 29.8298 15.9912 29.4982 16.7921C29.1666 17.593 28.6805 18.3208 28.0676 18.9337C27.4547 19.5467 26.727 20.0329 25.9261 20.3646C25.1252 20.6963 24.2668 20.8669 23.4 20.8667H14.6C10.9539 20.8667 8 17.9128 8 14.2667V14.1075V14.1024ZM9.46667 14.1178V14.2667C9.46667 17.1025 11.7635 19.4 14.6 19.4H23.4C26.2365 19.4 28.5333 17.1032 28.5333 14.2667V14.1185C28.4563 9.00427 24.2881 5.46667 19 5.46667C13.7119 5.46667 9.54293 9.00353 9.46667 14.1178Z" fill="#E90083"/>
</g>
<defs>
<filter id="filter0_d_833_579" x="0.0999999" y="0.0999999" width="37.8" height="32.6666" filterUnits="userSpaceOnUse" color-interpolation-filters="sRGB">
<feFlood flood-opacity="0" result="BackgroundImageFix"/>
<feColorMatrix in="SourceAlpha" type="matrix" values="0 0 0 0 0 0 0 0 0 0 0 0 0 0 0 0 0 0 127 0" result="hardAlpha"/>
<feOffset dy="4"/>
<feGaussianBlur stdDeviation="3.95"/>
<feComposite in2="hardAlpha" operator="out"/>
<feColorMatrix type="matrix" values="0 0 0 0 0.913725 0 0 0 0 0 0 0 0 0 0.513726 0 0 0 0.75 0"/>
<feBlend mode="normal" in2="BackgroundImageFix" result="effect1_dropShadow_833_579"/>
<feBlend mode="normal" in="SourceGraphic" in2="effect1_dropShadow_833_579" result="shape"/>
</filter>
</defs>
</svg>
