<svg width="38" height="38" viewBox="0 0 38 38" fill="none" xmlns="http://www.w3.org/2000/svg">
<path fill-rule="evenodd" clip-rule="evenodd" d="M32.3746 3.20524C32.8049 3.02351 33.2759 2.96083 33.7386 3.02373C34.2013 3.08663 34.6387 3.2728 35.0053 3.56287C35.3719 3.85294 35.6544 4.23631 35.8232 4.67306C35.9921 5.10982 36.0411 5.584 35.9654 6.04625L32.0159 30.083C31.6328 32.4016 29.0973 33.7312 26.978 32.5763C25.2053 31.6101 22.5723 30.1214 20.204 28.5681C19.0198 27.7906 15.3925 25.3008 15.8383 23.5291C16.2214 22.0142 22.3163 16.3217 25.7991 12.9373C27.1661 11.6077 26.5427 10.8407 24.9284 12.0637C20.9197 15.1004 14.4835 19.7184 12.3555 21.0183C10.4782 22.1645 9.49957 22.3602 8.32935 22.1645C6.1944 21.8081 4.21443 21.2559 2.59841 20.5833C0.414695 19.6747 0.52092 16.6625 2.59667 15.7853L32.3746 3.20524Z" fill="url(#paint0_linear_833_563)"/>
<defs>
<linearGradient id="paint0_linear_833_563" x1="18.5" y1="3" x2="18.5" y2="33" gradientUnits="userSpaceOnUse">
<stop stop-color="#D3FAFF"/>
<stop offset="1" stop-color="white"/>
</linearGradient>
</defs>
</svg>
