<svg width="20" height="20" viewBox="0 0 20 20" fill="none" xmlns="http://www.w3.org/2000/svg">
<path d="M4.2958 7.2958C4.20207 7.38876 4.12768 7.49936 4.07691 7.62122C4.02614 7.74308 4 7.87379 4 8.0058C4 8.13781 4.02614 8.26852 4.07691 8.39038C4.12768 8.51223 4.20207 8.62284 4.2958 8.7158L9.2958 13.7158C9.38876 13.8095 9.49936 13.8839 9.62122 13.9347C9.74308 13.9855 9.87379 14.0116 10.0058 14.0116C10.1378 14.0116 10.2685 13.9855 10.3904 13.9347C10.5122 13.8839 10.6228 13.8095 10.7158 13.7158L15.7158 8.7158C15.8095 8.62284 15.8839 8.51223 15.9347 8.39038C15.9855 8.26852 16.0116 8.13781 16.0116 8.0058C16.0116 7.87379 15.9855 7.74308 15.9347 7.62122C15.8839 7.49936 15.8095 7.38876 15.7158 7.2958C15.6228 7.20207 15.5122 7.12768 15.3904 7.07691C15.2685 7.02614 15.1378 7 15.0058 7C14.8738 7 14.7431 7.02614 14.6212 7.07691C14.4994 7.12768 14.3888 7.20207 14.2958 7.2958L10.0058 11.5958L5.7158 7.2958C5.62284 7.20207 5.51223 7.12768 5.39038 7.07691C5.26852 7.02614 5.13781 7 5.0058 7C4.87379 7 4.74308 7.02614 4.62122 7.07691C4.49936 7.12768 4.38876 7.20207 4.2958 7.2958Z" fill="#644B72"/>
</svg>
