<svg width="235" height="269" viewBox="0 0 235 269" fill="none" xmlns="http://www.w3.org/2000/svg">
<path d="M362.541 4.98007L357.704 34.5251C355.721 46.6986 345.003 55.6526 332.439 55.6526H281.927L286.765 26.1076C288.747 13.9341 299.465 4.98007 312.029 4.98007H362.541ZM320.183 80.9889H277.79L252.68 234.616C250.201 249.825 262.167 263.608 277.876 263.608H320.268L345.379 109.981C347.858 94.7721 335.892 80.9889 320.183 80.9889ZM145.451 4.77885H42.2899L38.7173 26.6777C36.2387 41.8694 48.2043 55.6359 63.8793 55.6359H124.323C147.399 55.6359 164.989 75.8747 161.331 98.2263C157.707 120.41 138.203 136.709 115.297 136.709H106.306H93.0583H42.4608C29.9482 136.709 19.2817 145.629 17.2989 157.752L0 263.407H50.6488C63.1272 263.407 73.7766 254.52 75.7424 242.43L84.7337 187.398H133.981C183.006 187.398 224.766 152.47 232.526 105.001C241.124 52.4332 199.723 4.77885 145.451 4.77885ZM904.96 4.9633H835.764C827.354 4.9633 819.491 9.07143 814.79 15.9127L764.688 88.8531L740.501 21.6641C736.894 11.6705 727.27 4.98007 716.45 4.98007H651.836L614.315 234.449C611.836 249.64 623.802 263.424 639.494 263.424H681.904L704.792 123.395L717.219 157.937L722.484 172.542C725.954 182.166 734.056 189.779 744.244 191.858C756.107 194.29 767.953 189.377 774.5 179.852L789.56 157.937L813.286 123.395L790.397 263.424H841.166C853.593 263.424 864.174 254.57 866.14 242.548L904.96 4.98007V4.9633ZM601.597 60.0626L610.52 4.9633H484.471C438.027 4.9633 398.472 38.0464 391.105 83.0179L379.156 156.143C369.943 212.5 414.318 263.575 472.522 263.575C527.667 263.575 574.657 224.287 583.392 170.865L585.939 155.288C588.401 140.213 576.538 126.547 560.965 126.547H487.308L480.813 166.321C479.873 172.039 484.385 177.22 490.283 177.22H498.761C504.658 177.22 509.171 182.401 508.231 188.119C505.445 205.138 490.522 217.664 472.984 217.748C456.386 217.832 443.805 202.992 446.437 186.912L463.89 80.1506C466.796 62.4101 482.881 49.5491 501.394 50.572C515.513 51.3601 526.316 63.3491 526.316 77.2329C526.316 79.2786 528.009 80.9219 530.077 80.9219H576.623C589.05 80.9219 599.648 72.0517 601.597 60.0123V60.0626ZM1070.05 0H1017.85C977.095 0 942.378 29.0252 935.934 68.4969L916.481 187.499C909.524 230.039 943.027 268.571 986.941 268.571H1039.15C1079.9 268.571 1114.61 239.546 1121.06 200.075L1140.51 81.0728C1147.47 38.5326 1113.96 0 1070.05 0ZM1068.19 81.0728L1050.67 188.253C1047.88 205.323 1032.85 217.882 1015.21 217.882C998.753 217.882 986.189 203.428 988.787 187.482L1006.31 80.3015C1009.09 63.2317 1024.12 50.6726 1041.76 50.6726C1058.22 50.6726 1070.79 65.1265 1068.19 81.0728Z" fill="url(#paint0_linear_1_8766)"/>
<defs>
<linearGradient id="paint0_linear_1_8766" x1="-1.27898e-09" y1="134.277" x2="242" y2="134" gradientUnits="userSpaceOnUse">
<stop stop-color="#E90083"/>
<stop offset="1" stop-color="#FF6864"/>
</linearGradient>
</defs>
</svg>
