<svg width="20" height="20" viewBox="0 0 20 20" fill="none" xmlns="http://www.w3.org/2000/svg">
<g clip-path="url(#clip0_891_122)">
<path d="M9.98249 14.9676H11.1491M9.98249 10.0094V6.5095M7.06592 10.0094L4.14935 6.5095M12.8991 10.0094L15.8156 6.5095M12.6074 10H7.35758C7.04817 10 6.75143 10.123 6.53265 10.3417C6.31386 10.5605 6.19095 10.8573 6.19095 11.1667V16.4165C6.19095 16.7259 6.31386 17.0227 6.53265 17.2414C6.75143 17.4602 7.04817 17.5831 7.35758 17.5831H12.6074C12.9168 17.5831 13.2136 17.4602 13.4323 17.2414C13.6511 17.0227 13.774 16.7259 13.774 16.4165V11.1667C13.774 10.8573 13.6511 10.5605 13.4323 10.3417C13.2136 10.123 12.9168 10 12.6074 10ZM16.399 6.51766C16.5051 6.51682 16.609 6.48704 16.6994 6.43154C16.7899 6.37603 16.8635 6.2969 16.9123 6.20267C16.9695 6.11402 17 6.01072 17 5.90518C17 5.79964 16.9695 5.69635 16.9123 5.60769C16.1121 4.5443 15.0594 3.69724 13.8494 3.14317C12.6394 2.5891 11.3103 2.34551 9.98249 2.43446C8.6604 2.35145 7.33837 2.59791 6.13501 3.15174C4.93164 3.70558 3.88457 4.54946 3.08772 5.60769C3.03046 5.69635 3 5.79964 3 5.90518C3 6.01072 3.03046 6.11402 3.08772 6.20267C3.13363 6.29188 3.20177 6.36773 3.28556 6.42291C3.36935 6.47809 3.46595 6.51072 3.56604 6.51766H16.399Z" stroke="#4B3456" stroke-width="1.16663" stroke-linecap="round" stroke-linejoin="round"/>
</g>
<defs>
<clipPath id="clip0_891_122">
<rect width="20" height="20" fill="white"/>
</clipPath>
</defs>
</svg>
