<svg width="20" height="21" viewBox="0 0 20 21" fill="none" xmlns="http://www.w3.org/2000/svg">
<path d="M14.08 10.1686C14.16 10.3286 14.24 10.5286 14.2 10.7286C14.16 10.9286 14.08 11.0886 13.96 11.2486C13.84 11.4086 13.68 11.4886 13.48 11.5286C13.28 11.5686 13.08 11.5286 12.92 11.4886C12.76 11.4086 12.6 11.2886 12.52 11.1286L12.36 10.8486L12.28 11.6486C12.2 12.2086 13.12 12.2886 13.12 12.2886C13.16 12.2886 13.2 12.3286 13.24 12.3686C13.28 12.4086 13.28 12.4486 13.28 12.4886C13.28 12.5286 13.24 12.5686 13.2 12.6086C13.16 12.6486 13.12 12.6486 13.08 12.6486L10.92 12.4086C10.88 12.4086 10.84 12.3686 10.8 12.3286C10.76 12.2886 10.76 12.2486 10.76 12.2086C10.76 12.1686 10.8 12.1286 10.84 12.0886C10.88 12.0486 10.92 12.0486 10.96 12.0486C10.96 12.0486 11.88 12.1686 11.92 11.6086L12 10.8086L11.8 11.0086C11.68 11.1286 11.48 11.2486 11.32 11.2886C11.12 11.3286 10.92 11.2886 10.76 11.2086C10.6 11.1286 10.44 11.0086 10.36 10.8086C10.28 10.6486 10.24 10.4486 10.24 10.2486C10.28 10.0486 10.36 9.8886 10.48 9.7286L12.52 7.7686L14.08 10.1686ZM17.36 5.8086L16.2 15.7686C16.08 16.6886 15.32 17.3686 14.4 17.3686C14.32 17.3686 14.28 17.3686 14.2 17.3686L12.88 17.2086C12.64 17.4486 12.28 17.6486 11.92 17.6886L6.39999 18.6486C6.27999 18.6486 6.19999 18.6886 6.07999 18.6886C5.71999 18.6886 5.35999 18.5686 5.03999 18.3686C4.63999 18.0886 4.39999 17.6886 4.31999 17.2086L2.63999 7.2886C2.55999 6.8086 2.67999 6.3286 2.95999 5.9286C3.23999 5.5286 3.63999 5.2886 4.11999 5.2086L8.31999 4.4886C8.55999 3.6486 9.35999 3.0886 10.24 3.1686L15.8 3.8086C16.28 3.8486 16.72 4.0886 17 4.4886C17.28 4.8886 17.44 5.3686 17.36 5.8086ZM9.63999 16.8486L8.63999 16.7286C8.15999 16.6886 7.71999 16.4486 7.43999 16.0486C7.15999 15.6886 6.99999 15.2086 7.07999 14.7286L8.11999 5.7686L4.31999 6.4086C4.15999 6.4486 4.03999 6.5286 3.95999 6.6486C3.87999 6.7686 3.83999 6.9286 3.87999 7.0486L5.55999 16.9286C5.59999 17.0886 5.67999 17.2086 5.79999 17.2886C5.91999 17.3686 6.07999 17.4086 6.19999 17.3686L9.63999 16.8486ZM16.16 5.6886C16.16 5.5286 16.12 5.4086 16.04 5.2886C15.96 5.1686 15.8 5.0886 15.68 5.0886L10.08 4.4086C9.75999 4.3686 9.47999 4.6086 9.47999 4.8886L8.31999 14.8486C8.31999 15.0086 8.35999 15.1286 8.43999 15.2486C8.51999 15.3686 8.67999 15.4486 8.79999 15.4486L14.36 16.1286C14.68 16.1686 14.96 15.9286 14.96 15.6486L16.16 5.6886Z" fill="#4B3456"/>
</svg>
