<svg width="20" height="21" viewBox="0 0 20 21" fill="none" xmlns="http://www.w3.org/2000/svg">
<path d="M16.64 8.14H13L11.2 3.74C10.84 2.86 9.79998 2.42 8.91998 2.78L2.71999 5.3C2.27999 5.46 1.95999 5.82 1.75999 6.26C1.55999 6.7 1.55999 7.18 1.75999 7.62L4.27999 13.82C4.43999 14.26 4.79999 14.58 5.23999 14.78C5.47999 14.86 5.67999 14.9 5.91998 14.9C6.15998 14.9 6.35999 14.86 6.59999 14.78L8.23999 14.1V16.58C8.23999 17.54 9.03998 18.34 9.99998 18.34H16.68C17.64 18.34 18.44 17.54 18.44 16.58V9.9C18.4 8.94 17.6 8.14 16.64 8.14ZM6.07998 13.58C5.95998 13.62 5.79998 13.62 5.67998 13.58C5.55998 13.54 5.43999 13.42 5.39999 13.3L2.87999 7.14C2.83999 7.02 2.83999 6.86 2.87999 6.74C2.95999 6.58 3.03999 6.5 3.19999 6.46L9.39998 3.94C9.67999 3.82 9.95999 3.98 10.08 4.22L11.68 8.14H9.95998C8.99998 8.14 8.19999 8.94 8.19999 9.9V12.74L6.07998 13.58ZM17.16 16.58C17.16 16.86 16.92 17.1 16.64 17.1H9.95998C9.67999 17.1 9.43999 16.86 9.43999 16.58V9.9C9.43999 9.62 9.67999 9.38 9.95998 9.38H16.64C16.92 9.38 17.16 9.62 17.16 9.9V16.58ZM14 13.26C14 13.66 13.68 13.98 13.28 13.98C12.88 13.98 12.56 13.66 12.56 13.26C12.56 12.86 12.88 12.54 13.28 12.54C13.68 12.5 14 12.82 14 13.26ZM5.55999 7.74C5.55999 8.14 5.23999 8.46 4.83999 8.46C4.43999 8.46 4.11999 8.14 4.11999 7.74C4.11999 7.34 4.43999 7.02 4.83999 7.02C5.23999 7.02 5.55999 7.3 5.55999 7.74ZM7.27999 11.78C7.27999 12.18 6.95999 12.5 6.55999 12.5C6.15999 12.5 5.83999 12.18 5.83999 11.78C5.83999 11.38 6.15999 11.06 6.55999 11.06C6.95999 11.06 7.27999 11.38 7.27999 11.78ZM8.23999 6.02C8.23999 5.62 8.55998 5.3 8.95998 5.3C9.35998 5.3 9.67999 5.62 9.67999 6.02C9.67999 6.42 9.35998 6.74 8.95998 6.74C8.59998 6.74 8.23999 6.42 8.23999 6.02ZM11.68 15.58C11.68 15.98 11.36 16.3 10.96 16.3C10.56 16.3 10.24 15.98 10.24 15.58C10.24 15.18 10.56 14.86 10.96 14.86C11.36 14.86 11.68 15.18 11.68 15.58ZM16.48 10.86C16.48 11.26 16.16 11.58 15.76 11.58C15.36 11.58 15.04 11.26 15.04 10.86C15.04 10.46 15.36 10.14 15.76 10.14C16.16 10.14 16.48 10.42 16.48 10.86Z" fill="#4B3456"/>
</svg>
