<svg width="20" height="21" viewBox="0 0 20 21" fill="none" xmlns="http://www.w3.org/2000/svg">
<path d="M16.24 7.18573H14.24C14.48 6.78573 14.64 6.30573 14.64 5.82573C14.6 4.34573 13.44 3.18573 12 3.18573C11.2 3.18573 10.48 3.54573 9.99997 4.10573C9.51997 3.54573 8.79997 3.18573 7.99997 3.18573C6.55997 3.18573 5.39997 4.34573 5.39997 5.78573C5.39997 6.30573 5.55997 6.74573 5.79997 7.14573H3.79997C3.43997 7.14573 3.15997 7.42573 3.15997 7.74573V9.90573C3.15997 10.2657 3.43997 10.5057 3.79997 10.5057H4.39997V17.7057C4.39997 18.0657 4.67997 18.3057 4.99997 18.3057H15C15.36 18.3057 15.64 18.0257 15.64 17.7057V10.5057H16.24C16.6 10.5057 16.84 10.2257 16.84 9.90573V7.74573C16.84 7.46573 16.56 7.18573 16.24 7.18573ZM15.6 9.30573H11.68V8.38573H15.6V9.30573ZM12 4.42573C12.76 4.42573 13.36 5.02573 13.36 5.78573C13.36 6.54573 12.76 7.14573 12 7.14573H10.64V5.78573C10.64 5.02573 11.24 4.42573 12 4.42573ZM6.63997 5.78573C6.63997 5.02573 7.23997 4.42573 7.99997 4.42573C8.75997 4.42573 9.35997 5.02573 9.35997 5.78573V7.18573H7.99997C7.23997 7.18573 6.63997 6.54573 6.63997 5.78573ZM4.39997 8.42573H8.27997V9.34573H4.39997V8.42573ZM5.63997 10.5457H8.31997V17.1457H5.63997V10.5457ZM9.55997 9.94573V8.42573H10.44V17.1457H9.51997V9.94573H9.55997ZM14.4 17.1457H11.72V10.5457H14.4V17.1457Z" fill="#4B3456"/>
</svg>
