<svg width="21" height="20" viewBox="0 0 21 20" fill="none" xmlns="http://www.w3.org/2000/svg">
<path d="M11.5 3.5C11.5 3.22386 11.7239 3 12 3H14C14.2761 3 14.5 3.22386 14.5 3.5V12.5C14.5 12.7761 14.2761 13 14 13H12C11.7239 13 11.5 12.7761 11.5 12.5V3.5Z" fill="#826B8E"/>
<path d="M6.5 6.5C6.5 6.22386 6.72386 6 7 6H9C9.27614 6 9.5 6.22386 9.5 6.5V15.5C9.5 15.7761 9.27614 16 9 16H7C6.72386 16 6.5 15.7761 6.5 15.5V6.5Z" fill="#826B8E"/>
<path d="M7.5 4.5C7.5 4.22386 7.72386 4 8 4C8.27614 4 8.5 4.22386 8.5 4.5V6.5C8.5 6.77614 8.27614 7 8 7C7.72386 7 7.5 6.77614 7.5 6.5V4.5Z" fill="#826B8E"/>
<path d="M12.5 12.5C12.5 12.2239 12.7239 12 13 12C13.2761 12 13.5 12.2239 13.5 12.5V14.5C13.5 14.7761 13.2761 15 13 15C12.7239 15 12.5 14.7761 12.5 14.5V12.5Z" fill="#826B8E"/>
</svg>
