<svg width="20" height="21" viewBox="0 0 20 21" fill="none" xmlns="http://www.w3.org/2000/svg">
<path d="M9.99999 2.33429C5.64 2.33429 2.12 5.85429 2.12 10.2143C2.12 14.5743 5.64 18.0943 9.99999 18.0943C14.36 18.0943 17.88 14.5743 17.88 10.2143C17.88 5.85429 14.36 2.33429 9.99999 2.33429ZM9.6 15.2943V16.8143C8.68 16.7743 7.79999 16.5343 7.03999 16.1343L7.79999 14.8143C8.35999 15.0943 8.96 15.2543 9.6 15.2943ZM10.4 15.2943C11.04 15.2543 11.64 15.0943 12.2 14.8143L12.96 16.1343C12.16 16.5343 11.32 16.7743 10.4 16.8143V15.2943ZM9.99999 14.5343C7.59999 14.5343 5.67999 12.6143 5.67999 10.2143C5.67999 7.81429 7.59999 5.89429 9.99999 5.89429C12.4 5.89429 14.32 7.81429 14.32 10.2143C14.32 12.6143 12.4 14.5343 9.99999 14.5343ZM4.91999 9.81429H3.39999C3.43999 8.89429 3.67999 8.01429 4.07999 7.25429L5.39999 8.01429C5.11999 8.57429 4.95999 9.17429 4.91999 9.81429ZM4.91999 10.6143C4.95999 11.2543 5.11999 11.8543 5.39999 12.4143L4.07999 13.1743C3.67999 12.3743 3.43999 11.5343 3.39999 10.6143H4.91999ZM10.4 5.13429V3.61429C11.32 3.65429 12.2 3.89429 12.96 4.29429L12.2 5.61429C11.64 5.33429 11.04 5.17429 10.4 5.13429ZM9.6 5.13429C8.96 5.17429 8.35999 5.33429 7.79999 5.61429L7.03999 4.29429C7.83999 3.89429 8.68 3.65429 9.6 3.61429V5.13429ZM15.08 10.6143H16.6C16.56 11.5343 16.32 12.4143 15.92 13.1743L14.6 12.4143C14.88 11.8543 15.04 11.2543 15.08 10.6143ZM15.08 9.81429C15.04 9.17429 14.88 8.57429 14.6 8.01429L15.92 7.25429C16.32 8.05429 16.56 8.89429 16.6 9.81429H15.08ZM15.52 6.57429L14.2 7.33429C13.84 6.81429 13.4 6.37429 12.88 6.01429L13.64 4.69429C14.4 5.17429 15.04 5.81429 15.52 6.57429ZM6.35999 4.69429L7.11999 6.01429C6.59999 6.37429 6.15999 6.81429 5.79999 7.33429L4.47999 6.57429C4.95999 5.81429 5.59999 5.17429 6.35999 4.69429ZM4.47999 13.8543L5.79999 13.0943C6.15999 13.6143 6.59999 14.0543 7.11999 14.4143L6.35999 15.7343C5.59999 15.2543 4.95999 14.6143 4.47999 13.8543ZM13.64 15.7343L12.88 14.4143C13.4 14.0543 13.84 13.6143 14.2 13.0943L15.52 13.8543C15.04 14.6143 14.4 15.2543 13.64 15.7343ZM11.4 10.7743L13.4 10.4543C13.68 10.4143 13.68 10.0143 13.4 9.97429L11.4 9.65429C11.24 9.29429 10.96 8.97429 10.56 8.81429L10.24 6.81429C10.2 6.53429 9.79999 6.53429 9.75999 6.81429L9.43999 8.81429C9.07999 8.97429 8.75999 9.25429 8.6 9.65429L6.59999 9.97429C6.31999 10.0143 6.31999 10.4143 6.59999 10.4543L8.6 10.7743C8.75999 11.1343 9.03999 11.4543 9.43999 11.6143L9.75999 13.6143C9.79999 13.8943 10.2 13.8943 10.24 13.6143L10.56 11.6143C10.92 11.4543 11.24 11.1343 11.4 10.7743ZM9.99999 10.8943C9.59999 10.8943 9.28 10.5743 9.28 10.1743C9.28 9.77429 9.59999 9.45429 9.99999 9.45429C10.4 9.45429 10.72 9.77429 10.72 10.1743C10.72 10.5743 10.4 10.8943 9.99999 10.8943Z" fill="#4B3456"/>
</svg>
