<svg width="20" height="21" viewBox="0 0 20 21" fill="none" xmlns="http://www.w3.org/2000/svg">
<path d="M11.8 10.2286C11.92 10.3886 12 10.5486 12 10.7886C12 10.9886 11.96 11.1486 11.84 11.3086C11.72 11.4686 11.56 11.5886 11.4 11.6286C11.2 11.7086 11.04 11.7086 10.84 11.6286C10.64 11.5886 10.48 11.4686 10.4 11.3086L10.2 11.0686V11.8686C10.2 12.4286 11.12 12.4286 11.12 12.4286C11.16 12.4286 11.2 12.4286 11.24 12.4686C11.28 12.5086 11.28 12.5486 11.28 12.5886C11.28 12.6286 11.28 12.6686 11.24 12.7086C11.2 12.7486 11.16 12.7486 11.12 12.7486H8.95999C8.91999 12.7486 8.87999 12.7486 8.83999 12.7086C8.79999 12.6686 8.79999 12.6286 8.79999 12.5886C8.79999 12.5486 8.79999 12.5086 8.83999 12.4686C8.79999 12.4286 8.87999 12.4286 8.91999 12.4286C8.91999 12.4286 9.83999 12.4286 9.83999 11.8686V11.0686L9.63999 11.3086C9.51999 11.4686 9.35999 11.5886 9.2 11.6286C9 11.6686 8.83999 11.6686 8.63999 11.6286C8.43999 11.5886 8.31999 11.4686 8.19999 11.3086C8.07999 11.1486 8.03999 10.9486 8.03999 10.7886C8.03999 10.5886 8.12 10.3886 8.24 10.2286L10.04 8.06858L11.8 10.2286ZM17.88 10.4286C17.88 14.7886 14.36 18.3086 9.99999 18.3086C5.64 18.3086 2.12 14.7886 2.12 10.4286C2.12 6.06858 5.64 2.54858 9.99999 2.54858C14.36 2.54858 17.88 6.06858 17.88 10.4286ZM15.16 14.6286L14.36 14.1886C14.24 14.1086 14.24 13.9886 14.28 13.9086L15.12 12.4286C15.16 12.3086 15.32 12.3086 15.4 12.3486L16.2 12.7886C16.48 12.0686 16.64 11.2686 16.64 10.4286C16.64 9.58858 16.48 8.82858 16.2 8.06858L15.4 8.50858C15.28 8.58858 15.16 8.54858 15.12 8.42858L14.28 6.94858C14.2 6.82858 14.24 6.70858 14.36 6.66858L15.16 6.22858C14.16 4.98858 12.72 4.14858 11.08 3.86858V4.78858C11.08 4.90858 11 4.98858 10.88 4.98858H9.2C9.08 4.98858 9 4.90858 9 4.78858V3.86858C7.36 4.14858 5.91999 4.98858 4.91999 6.22858L5.72 6.66858C5.83999 6.74858 5.83999 6.86858 5.79999 6.94858L4.95999 8.42858C4.87999 8.54858 4.75999 8.54858 4.67999 8.50858L3.87999 8.06858C3.51999 8.82858 3.35999 9.58858 3.35999 10.4286C3.35999 11.2686 3.51999 12.0286 3.79999 12.7886L4.59999 12.3486C4.71999 12.2686 4.83999 12.3086 4.87999 12.4286L5.72 13.9086C5.75999 14.0286 5.75999 14.1486 5.64 14.1886L4.84 14.6286C5.84 15.8686 7.27999 16.7086 8.91999 16.9886V16.0686C8.91999 15.9486 8.99999 15.8686 9.11999 15.8686H10.8C10.92 15.8686 11 15.9486 11 16.0686V16.9886C12.72 16.7086 14.12 15.8686 15.16 14.6286ZM14.52 10.4286C14.52 12.9486 12.48 14.9486 9.99999 14.9486C7.47999 14.9486 5.47999 12.9086 5.47999 10.4286C5.47999 7.94858 7.47999 5.90858 9.99999 5.90858C12.52 5.90858 14.52 7.90858 14.52 10.4286ZM13.72 10.4286C13.72 8.34858 12.04 6.70858 9.99999 6.70858C7.92 6.70858 6.27999 8.38858 6.27999 10.4286C6.27999 12.4686 7.96 14.1486 9.99999 14.1486C12.08 14.1486 13.72 12.5086 13.72 10.4286Z" fill="#4B3456"/>
</svg>
