<svg width="20" height="20" viewBox="0 0 20 20" fill="none" xmlns="http://www.w3.org/2000/svg">
<path d="M5.38 17.0306C5.02 17.0306 4.74 16.7506 4.74 16.3906C4.74 16.3506 4.74 16.3106 4.74 16.2706L5.54 11.6306L2.18 8.35056C1.94 8.11056 1.94 7.71056 2.18 7.47056C2.26 7.39056 2.42 7.31056 2.54 7.27056L7.22 6.59056L9.3 2.35056C9.46 2.03056 9.82 1.91056 10.14 2.07056C10.26 2.15056 10.38 2.23056 10.42 2.35056L12.5 6.59056L17.18 7.27056C17.54 7.31056 17.74 7.63056 17.7 7.99056C17.7 8.11056 17.62 8.27056 17.5 8.35056L14.14 11.6306L14.94 16.2706C14.98 16.6306 14.78 16.9506 14.42 16.9906C14.3 17.0306 14.14 16.9906 14.02 16.9106L9.86 14.7506L5.7 16.9506C5.58 16.9906 5.5 17.0306 5.38 17.0306ZM9.86 13.4306C9.98 13.4306 10.06 13.4706 10.14 13.5106L13.5 15.2706L12.86 11.5106C12.82 11.3106 12.9 11.1106 13.06 10.9506L15.78 8.31056L12.06 7.75056C11.86 7.71056 11.66 7.59056 11.58 7.39056L9.86 4.03056L8.18 7.43056C8.1 7.63056 7.9 7.75056 7.7 7.79056L3.98 8.31056L6.7 10.9506C6.86 11.1106 6.9 11.3106 6.9 11.5106L6.26 15.2306L9.62 13.4706C9.66 13.4306 9.74 13.4306 9.86 13.4306Z" fill="#4B3456"/>
</svg>
