<svg width="21" height="20" viewBox="0 0 21 20" fill="none" xmlns="http://www.w3.org/2000/svg">
<path d="M17.6971 3.68857H15.5829C15.5456 3.68857 15.5098 3.67375 15.4834 3.64736C15.457 3.62097 15.4422 3.58518 15.4422 3.54786V3.1229C15.4415 2.82483 15.3225 2.53922 15.1115 2.32872C14.9005 2.11821 14.6146 2 14.3165 2L6.44387 2.00915C6.1461 2.0097 5.86069 2.12821 5.6501 2.33873C5.43952 2.54925 5.32092 2.83463 5.32027 3.1324V3.54786C5.32027 3.58518 5.30544 3.62097 5.27905 3.64736C5.25266 3.67375 5.21687 3.68857 5.17955 3.68857H3.06286C2.91358 3.68857 2.77041 3.74787 2.66486 3.85343C2.5593 3.95898 2.5 4.10215 2.5 4.25143V4.81429C2.5 6.73257 3.55536 8.77012 5.19186 9.22392C5.24026 9.23739 5.28403 9.26386 5.31845 9.30045C5.35287 9.33704 5.37661 9.38235 5.38711 9.43147C5.59009 10.3774 6.21451 11.2783 7.19564 12.021C7.93122 12.5778 8.80857 12.9884 9.59728 13.1636C9.65963 13.1775 9.71538 13.2123 9.75534 13.2622C9.7953 13.3121 9.81709 13.3741 9.81714 13.438V16.4936C9.81714 16.5309 9.80232 16.5667 9.77593 16.5931C9.74954 16.6195 9.71375 16.6343 9.67643 16.6343H7.58154C7.27866 16.6343 7.01869 16.8672 7.00356 17.1701C6.99989 17.2462 7.01172 17.3222 7.03831 17.3936C7.06491 17.465 7.10572 17.5303 7.15828 17.5854C7.21084 17.6406 7.27406 17.6845 7.34409 17.7145C7.41413 17.7445 7.48952 17.76 7.56571 17.76H13.1785C13.4813 17.76 13.7413 17.5271 13.7564 17.2242C13.7601 17.1481 13.7483 17.0721 13.7217 17.0007C13.6951 16.9293 13.6543 16.864 13.6017 16.8089C13.5492 16.7537 13.4859 16.7098 13.4159 16.6798C13.3459 16.6498 13.2705 16.6343 13.1943 16.6343H11.0836C11.0463 16.6343 11.0105 16.6195 10.9841 16.5931C10.9577 16.5667 10.9429 16.5309 10.9429 16.4936V13.438C10.9429 13.3741 10.9647 13.3121 11.0047 13.2622C11.0446 13.2123 11.1004 13.1775 11.1627 13.1636C11.9514 12.9877 12.8288 12.5778 13.5644 12.021C14.5455 11.2783 15.1699 10.3774 15.3729 9.43147C15.3834 9.38235 15.4071 9.33704 15.4415 9.30045C15.476 9.26386 15.5197 9.23739 15.5681 9.22392C17.2046 8.77012 18.26 6.73257 18.26 4.81429V4.25143C18.26 4.10215 18.2007 3.95898 18.0951 3.85343C17.9896 3.74787 17.8464 3.68857 17.6971 3.68857ZM5.31429 7.84738C5.3142 7.87204 5.30763 7.89624 5.29525 7.91757C5.28286 7.93889 5.26509 7.95658 5.24371 7.96887C5.22234 7.98116 5.19811 7.98762 5.17345 7.9876C5.14879 7.98758 5.12457 7.98108 5.10321 7.96875C4.74228 7.75381 4.47879 7.42805 4.32436 7.19869C3.90538 6.57638 3.65597 5.76798 3.62818 4.96028C3.62747 4.94136 3.63058 4.92249 3.63733 4.90481C3.64409 4.88712 3.65434 4.87098 3.66748 4.85735C3.68062 4.84372 3.69637 4.83288 3.71379 4.82548C3.73122 4.81808 3.74996 4.81427 3.76889 4.81429H5.17603C5.21335 4.81429 5.24915 4.82911 5.27553 4.8555C5.30192 4.88189 5.31675 4.91768 5.31675 4.955C5.31604 5.92065 5.31429 7.02596 5.31429 7.84738ZM16.4353 7.19869C16.2809 7.42805 16.0177 7.75381 15.6568 7.96875C15.6354 7.98109 15.6112 7.98759 15.5865 7.9876C15.5618 7.98761 15.5375 7.98112 15.5161 7.96878C15.4947 7.95645 15.477 7.93871 15.4646 7.91734C15.4523 7.89597 15.4457 7.87172 15.4457 7.84703C15.4457 6.91445 15.4457 5.85487 15.444 4.955C15.444 4.91768 15.4588 4.88189 15.4852 4.8555C15.5116 4.82911 15.5473 4.81429 15.5847 4.81429H16.9918C17.0107 4.81427 17.0295 4.81808 17.0469 4.82548C17.0643 4.83288 17.0801 4.84372 17.0932 4.85735C17.1064 4.87098 17.1166 4.88712 17.1234 4.90481C17.1301 4.92249 17.1332 4.94136 17.1325 4.96028C17.1047 5.76798 16.8543 6.57638 16.4353 7.19869Z" fill="#826B8E"/>
</svg>
